<svg t="1581143881597" class="icon" viewBox="0 0 1024 1024" version="1.1" xmlns="http://www.w3.org/2000/svg" p-id="4729" width="200" height="200"><path d="M1024 186.368a410.325333 410.325333 0 0 1-120.618667 33.877333 214.954667 214.954667 0 0 0 92.373334-119.125333 413.781333 413.781333 0 0 1-133.504 52.181333A207.189333 207.189333 0 0 0 708.949333 85.333333c-115.968 0-210.005333 96.426667-210.005333 215.424 0 16.896 1.792 33.28 5.376 49.066667-174.592-9.002667-329.386667-94.72-433.066667-225.152a219.306667 219.306667 0 0 0-28.416 108.373333c0 74.709333 37.12 140.672 93.44 179.328a206.250667 206.250667 0 0 1-95.146666-26.88v2.645334c0 104.405333 72.405333 191.488 168.533333 211.2a200.32 200.32 0 0 1-55.296 7.594666c-13.525333 0-26.752-1.28-39.552-3.84 26.709333 85.589333 104.277333 147.882667 196.224 149.546667A414.805333 414.805333 0 0 1 0 841.941333 584.96 584.96 0 0 0 322.048 938.666667c386.474667 0 597.76-328.192 597.76-612.906667 0-9.386667-0.213333-18.730667-0.554667-27.904 41.045333-30.378667 76.672-68.266667 104.746667-111.488" fill="#55ACEE" p-id="4730"></path></svg>