<svg t="1581146417662" class="icon" viewBox="0 0 1024 1024" version="1.1" xmlns="http://www.w3.org/2000/svg" p-id="16756" width="200" height="200"><path d="M548.8 800c-133.6 56-306.4 56-443.2-110.4-0.8 0.8-3.2 2.4-2.4 4.8 31.2 75.2 116.8 200.8 286.4 248 67.2 18.4 156 29.6 266.4-8 34.4-12 72.8-31.2 103.2-52.8 38.4-27.2 63.2-55.2 70.4-64 15.2-16.8 26.4-52 9.6-87.2-20.8-43.2-73.6-67.2-127.2-29.6-48 32.8-92.8 70.4-163.2 99.2z" fill="#E50012" p-id="16757"></path><path d="M742.4 336.8c115.2 88.8 200 231.2 126.4 435.2 1.6 0 2.4 0.8 4.8-1.6 34.4-40 112.8-194.4 69.6-364.8-17.6-67.2-51.2-150.4-139.2-228-27.2-24-62.4-46.4-96-61.6-36-16.8-69.6-25.6-88.8-28-23.2-3.2-54.4-1.6-82.4 33.6-27.2 34.4-20 97.6 40 124.8 53.6 24.8 105.6 43.2 165.6 90.4z" fill="#00A73C" p-id="16758"></path><path d="M740 336c115.2 88.8 200.8 237.6 124 439.2 1.6 0 3.2 1.6 5.6-0.8 47.2-57.6 116.8-201.6 72.8-372-17.6-67.2-52-149.6-140-227.2-27.2-24-64-48-97.6-63.2-43.2-20-79.2-27.2-90.4-28.8-22.4-2.4-58.4 2.4-80 34.4-27.2 40-21.6 97.6 37.6 125.6 53.6 26.4 108.8 45.6 168 92.8z" fill="#1EAA39" p-id="16759"></path><path d="M245.6 396c22.4-143.2 112-290.4 325.6-320 0-1.6 0-4-3.2-4.8-72.8-11.2-232.8-5.6-360.8 115.2-50.4 47.2-106.4 117.6-132 232-8 36-11.2 78.4-8.8 116 3.2 47.2 14.4 82.4 17.6 93.6 6.4 21.6 31.2 49.6 69.6 53.6 48 4.8 96-28 92-92.8-3.2-60.8-12-118.4 0-192.8z" fill="#FFD800" p-id="16760"></path><path d="M656.8 480.8c0.8-25.6 2.4-160.8-139.2-160-141.6-0.8-140 136-139.2 161.6-26.4 30.4-44 104-36.8 105.6 16.8 2.4 28.8-6.4 36.8-15.2 4.8-4.8 4.8-3.2 6.4 0.8s15.2 30.4 19.2 36c3.2 4.8 2.4 8-4 8.8s-15.2 6.4-20.8 14.4c-9.6 12.8 0 25.6 19.2 32 55.2 17.6 97.6 0.8 100.8-1.6 0.8-0.8 8-2.4 9.6-3.2l8-0.8c5.6 0 8.8 0.8 8.8 0.8 4 0.8 6.4 2.4 11.2 4 4 1.6 48 18.4 101.6-0.8 17.6-6.4 25.6-17.6 17.6-28.8-6.4-8.8-12.8-13.6-23.2-16.8-4.8-1.6-6.4-2.4-3.2-6.4 4-5.6 16.8-31.2 18.4-35.2 1.6-4 3.2-8.8 6.4-3.2 6.4 9.6 25.6 20 37.6 15.2 12.8-5.6-13.6-79.2-35.2-107.2z" fill="#208AC3" p-id="16761"></path></svg>