<svg t="1581176484322" class="icon" viewBox="0 0 1026 1024" version="1.1" xmlns="http://www.w3.org/2000/svg" p-id="46066" width="200" height="200"><path d="M595.537 301.81H552.42v423.074h43.116c75.452 0 132.042-18.863 172.463-51.2 37.726-35.031 56.59-88.926 56.59-158.99 0-70.062-18.864-126.652-56.59-158.989-40.421-37.726-97.01-53.894-172.463-53.894z" fill="#DD2727" p-id="46067"></path><path d="M897.347 0h-768C56.59 0 0 56.59 0 129.347v768C0 967.411 56.59 1024 129.347 1024h768c70.064 0 129.348-56.59 129.348-129.347V129.347C1024 56.59 967.41 0 897.347 0z m-506.61 598.232c0 70.063-21.558 123.957-61.98 158.99-40.42 35.03-105.094 51.2-188.63 51.2h-13.474v-86.233h10.779c29.642 0 53.894-2.694 72.757-8.084 18.864-5.39 37.727-13.473 51.2-24.252 10.78-8.085 18.864-21.558 24.253-35.032 5.39-16.168 8.084-43.116 8.084-83.537V210.19h97.01v388.043z m441.937 137.431c-56.59 48.505-140.127 75.453-247.916 75.453H458.105V212.884h126.653c107.79 0 191.326 24.253 247.916 75.453 56.59 48.505 86.231 126.652 86.231 223.663-2.694 97.01-32.337 175.158-86.231 223.663z" fill="#DD2727" p-id="46068"></path></svg>