<svg t="1581175688994" class="icon" viewBox="0 0 1024 1024" version="1.1" xmlns="http://www.w3.org/2000/svg" p-id="35694" width="200" height="200"><path d="M199.111111 0h625.777778c109.795556 0 199.111111 89.315556 199.111111 199.111111v625.777778c0 109.795556-89.315556 199.111111-199.111111 199.111111H199.111111c-109.795556 0-199.111111-89.315556-199.111111-199.111111V199.111111C0 89.315556 89.315556 0 199.111111 0z" fill="#170B1A" p-id="35695"></path><path d="M511.431111 302.08c0.568889-64.284444 0-128.568889 0.568889-192.853333h131.413333c-0.568889 11.377778 1.137778 22.755556 2.844445 33.564444h-96.711111v522.24c0.568889 22.186667-5.12 44.373333-15.928889 63.715556-17.066667 29.582222-48.924444 50.062222-83.057778 52.906666-21.617778 1.706667-43.804444-2.275556-63.146667-13.084444-14.791111-7.964444-27.306667-19.342222-36.977777-32.995556 33.564444 18.773333 77.368889 17.066667 109.795555-3.982222 31.288889-19.342222 51.768889-55.751111 51.768889-93.297778-0.568889-112.071111-0.568889-224.142222-0.568889-336.213333z m216.746667-36.977778c18.204444 11.377778 38.684444 20.48 59.733333 25.031111 12.515556 2.844444 25.031111 3.982222 38.115556 3.982223v29.582222c-37.546667-8.533333-72.248889-29.582222-97.848889-58.595556z" fill="#25F4EE" p-id="35696"></path><path d="M274.773333 428.942222c47.217778-29.582222 104.675556-41.528889 159.288889-33.564444V426.666667c-14.791111 0.568889-29.013333 2.275556-43.804444 5.12-35.271111 7.395556-68.835556 22.186667-97.848889 43.804444-31.288889 23.324444-55.182222 55.182222-71.68 90.453333-15.928889 33.564444-23.893333 70.542222-23.324445 108.088889 0 40.96 11.377778 80.782222 30.72 116.622223 9.102222 16.497778 19.342222 32.426667 32.995556 45.511111-27.875556-19.342222-51.2-45.511111-68.266667-75.093334-23.324444-39.253333-34.702222-85.333333-33.564444-131.413333 1.706667-42.097778 13.653333-83.626667 35.84-120.035556 19.342222-32.426667 47.217778-60.871111 79.644444-80.782222z" fill="#25F4EE" p-id="35697"></path><path d="M549.546667 142.791111h97.28c3.413333 18.773333 10.24 36.408889 18.773333 53.475556 13.653333 26.168889 32.995556 49.493333 58.026667 64.853333 1.706667 1.137778 2.844444 2.275556 3.982222 3.982222 25.6 29.013333 60.302222 50.062222 98.417778 58.595556 0.568889 34.133333 0 68.835556 0 102.968889-64.284444 0.568889-128.568889-19.911111-180.906667-57.457778 0 81.92 0 163.84 0.568889 245.76 0 10.808889 0.568889 21.617778 0 32.995555-2.844444 39.822222-15.36 79.075556-35.271111 113.777778-17.066667 30.151111-40.391111 56.888889-68.266667 77.368889-35.84 26.737778-80.213333 41.528889-124.586667 42.666667-22.755556 0.568889-45.511111-0.568889-67.697777-5.688889-31.288889-6.826667-60.871111-19.911111-87.04-38.115556l-1.706667-1.706666c-13.084444-13.084444-23.893333-29.013333-32.995556-45.511111-19.342222-35.271111-30.72-75.662222-30.72-116.622223-0.568889-36.977778 7.395556-74.524444 23.324445-108.088889 16.497778-35.271111 40.96-67.128889 71.68-90.453333 29.013333-21.617778 62.577778-36.408889 97.848889-43.804444 14.222222-2.844444 29.013333-4.551111 43.804444-5.12 0.568889 13.084444 0 26.168889 0.568889 38.684444v66.56c-16.497778-5.688889-34.702222-5.688889-51.768889-1.706667-20.48 4.551111-39.822222 13.653333-55.751111 27.306667-9.671111 8.533333-18.204444 18.773333-23.893333 30.151111-10.24 19.342222-13.653333 42.097778-11.377778 63.715556 2.275556 21.048889 11.377778 41.528889 25.031111 57.457778 9.102222 11.377778 21.048889 19.911111 32.995556 27.875555 9.671111 13.653333 22.186667 25.031111 36.977777 32.995556 19.342222 10.24 41.528889 14.791111 63.146667 13.084444 34.133333-2.275556 65.991111-23.324444 83.057778-52.906667 10.808889-19.342222 16.497778-41.528889 15.928889-63.715555 1.137778-175.217778 0.568889-349.297778 0.568889-523.377778z" fill="#FFFFFF" p-id="35698"></path><path d="M646.826667 142.791111c11.377778 0.568889 22.755556 0 34.702222 0 0 38.115556 11.946667 76.231111 34.133333 107.52 2.844444 3.982222 5.688889 7.395556 8.533334 10.808889-25.031111-15.36-44.942222-38.684444-58.026667-64.853333-8.533333-16.497778-15.36-34.702222-19.342222-53.475556z m179.2 180.906667c12.515556 2.844444 25.031111 3.982222 38.115555 3.982222v132.551111c-64.853333 0.568889-129.706667-21.048889-182.613333-59.164444v262.826666c0.568889 19.911111-1.137778 39.822222-5.688889 59.164445-12.515556 59.164444-47.786667 112.64-96.711111 147.342222-26.168889 18.773333-55.751111 31.857778-86.471111 38.684444-37.546667 8.533333-76.8 7.964444-113.777778-1.706666-43.804444-11.377778-84.764444-35.84-115.484444-69.404445 26.168889 18.773333 55.751111 31.288889 87.04 38.115556 22.186667 5.12 44.942222 6.257778 67.697777 5.688889 44.373333-1.137778 88.746667-15.928889 124.586667-42.666667 27.875556-20.48 50.631111-47.217778 68.266667-77.368889 19.911111-34.702222 32.426667-73.955556 35.271111-113.777778 0.568889-10.808889 0.568889-21.617778 0-32.995555-0.568889-81.92-0.568889-163.84-0.568889-245.76 52.337778 37.546667 116.622222 58.026667 180.906667 57.457778-0.568889-34.133333 0-68.835556-0.568889-102.968889z" fill="#FE2C55" p-id="35699"></path><path d="M434.631111 426.097778c12.515556 0 25.6 0.568889 38.115556 2.275555v135.964445c-18.204444-6.257778-38.684444-6.826667-57.457778-2.275556-35.84 7.964444-65.991111 35.271111-78.506667 69.973334-12.515556 34.133333-7.395556 73.955556 14.222222 102.968888-12.515556-7.395556-23.893333-16.497778-32.995555-27.875555-13.653333-15.928889-22.755556-36.408889-25.031111-57.457778-2.275556-21.617778 1.137778-44.373333 11.377778-63.715555 5.688889-11.377778 14.222222-21.617778 23.893333-30.151112 15.928889-13.653333 35.84-22.186667 55.751111-27.306666 17.066667-3.982222 35.271111-3.982222 51.768889 1.706666V463.644444c-1.137778-11.377778-0.568889-24.462222-1.137778-37.546666z" fill="#FE2C55" p-id="35700"></path></svg>