<svg t="1581153545027" class="icon" viewBox="0 0 1024 1024" version="1.1" xmlns="http://www.w3.org/2000/svg" p-id="27701" width="200" height="200"><path d="M512 1024C229.2224 1024 0 794.7776 0 512S229.2224 0 512 0s512 229.2224 512 512-229.2224 512-512 512zM456.3968 489.8816c12.288-43.008 55.04-78.8992 101.888-84.3776 9.5744 35.5328 19.8656 70.2976 27.904 105.6256 2.7136 11.776 1.8944 25.344-0.9216 37.2224-10.9056 45.6704-63.8976 63.5904-101.2736 35.072-27.136-20.736-37.9904-57.344-27.5968-93.5424z m195.4304-10.0864c-6.4-23.808-13.1072-47.4624-20.1216-72.704 25.6 6.656 46.4896 18.432 64.256 35.7376 64.3584 62.5152 70.912 168.96 15.0528 242.2272-58.112 76.288-161.536 109.2608-257.4336 82.176-117.8624-33.28-194.9696-151.1424-176.1792-272.1792 14.0288-90.5216 65.024-153.8048 148.48-191.1296 20.8384-9.3184 29.696-28.672 21.504-47.616-8.0384-18.6368-27.648-25.8048-48.3328-17.5616-139.3152 55.7568-221.184 211.6608-187.904 357.7344 36.5056 159.6416 178.944 264.3456 341.76 248.7808 88.6784-8.448 161.9968-48.5376 215.8592-120.1664 77.1072-102.5024 66.4064-244.8896-23.7056-332.7488-34.0992-33.28-75.3152-52.1216-122.368-59.0336-4.2496-0.6656-11.1104-2.6624-11.8784-5.4272-4.4544-16.0256-9.216-32.3584-10.5472-48.8448-1.4848-18.2784 14.848-32.768 33.28-33.024 12.9536-0.1536 22.2208 6.656 30.8736 15.36 15.5136 15.36 36.0448 16.4864 50.5856 3.1744 14.848-13.5168 15.1552-34.7136 0.9216-51.6096-28.9792-34.4064-81.2032-45.6192-124.416-26.7776-43.3664 18.944-67.6352 60.7744-61.44 107.1616 1.9456 14.336 5.632 28.5184 8.5504 43.1104l-13.312 3.6864a197.7856 197.7856 0 0 0-107.4176 72.3968c-47.1552 62.464-47.9232 144.7936-2.0992 202.0864 65.2288 81.6128 191.8464 65.7408 231.5776-29.0816 14.5408-34.6112 14.08-70.0416 4.4544-105.728z" fill="#d81e06" p-id="27702"></path></svg>