<svg t="1581146333998" class="icon" viewBox="0 0 1024 1024" version="1.1" xmlns="http://www.w3.org/2000/svg" p-id="15972" width="200" height="200"><path d="M512 493.714286m-475.428571 0a475.428571 475.428571 0 1 0 950.857142 0 475.428571 475.428571 0 1 0-950.857142 0Z" fill="#FF5500" p-id="15973"></path><path d="M772.882286 370.596571s-16.457143-122.514286-288.914286-47.542857c12.8-20.114286 18.285714-32.914286 18.285714-32.914285l-67.657143-18.285715s-27.428571 89.6-76.8 129.828572c0 0 47.542857 27.428571 47.542858 25.6 12.8-12.8 25.6-27.428571 36.571428-40.228572 10.971429-5.485714 21.942857-9.142857 31.085714-12.8-12.8 21.942857-32.914286 56.685714-53.028571 76.8l29.257143 25.6s20.114286-18.285714 40.228571-40.228571h23.771429v42.057143h-95.085714v31.085714h95.085714v78.628571h-3.657143c-10.971429 0-27.428571-1.828571-32.914286-12.8-7.314286-12.8-1.828571-34.742857-1.828571-47.542857h-65.828572l-1.828571 1.828572s-23.771429 106.057143 69.485714 104.228571c87.771429 1.828571 137.142857-23.771429 160.914286-42.057143l9.142857 34.742857 53.028572-21.942857-36.571429-87.771428-43.885714 12.8 7.314285 31.085714c-10.971429 9.142857-23.771429 14.628571-38.4 18.285714v-69.485714h93.257143v-32.914286h-93.257143v-40.228571h93.257143v-34.742857h-164.571428c12.8-14.628571 21.942857-27.428571 23.771428-36.571429l-29.257143-7.314286c124.342857-43.885714 192-36.571429 192 34.742858v190.171428s7.314286 65.828571-67.657142 60.342857l-40.228572-9.142857-7.314286 40.228572s175.542857 49.371429 190.171429-84.114286c12.8-133.485714-5.485714-219.428571-5.485714-219.428572z m-477.257143 12.8l-31.085714 45.714286 56.685714 34.742857s38.4 18.285714 20.114286 54.857143c-16.457143 34.742857-98.742857 107.885714-98.742858 107.885714l73.142858 45.714286c51.2-109.714286 47.542857-95.085714 60.342857-133.485714 12.8-40.228571 16.457143-71.314286-5.485715-93.257143-29.257143-29.257143-32.914286-31.085714-74.971428-62.171429z" fill="#FFFFFF" p-id="15974"></path><path d="M306.596571 271.853714c23.771429 0 43.885714 20.114286 43.885715 43.885715s-18.285714 42.057143-43.885715 42.057142-42.057143-18.285714-42.057142-42.057142 18.285714-43.885714 42.057142-43.885715z" fill="#FFEB0D" p-id="15975"></path></svg>