<svg t="1581154333501" class="icon" viewBox="0 0 1024 1024" version="1.1" xmlns="http://www.w3.org/2000/svg" p-id="30433" width="200" height="200"><path d="M512 0C229.257143 0 0 229.257143 0 512s229.257143 512 512 512 512-229.257143 512-512S794.742857 0 512 0zM287.657143 260c31.2 0 56.571429 25.257143 56.571428 56.457143s-25.257143 56.457143-56.571428 56.457143a56.457143 56.457143 0 1 1 0-112.914286zM346.171429 587.428571c-15.542857 48.342857-11.657143 30.514286-73.6 165.142858l-89.714286-56s100.228571-91.2 120.685714-132.8c21.942857-43.885714-24.114286-67.314286-24.114286-67.314286l-68.8-42.857143 37.371429-57.371429c51.885714 38.514286 55.657143 41.828571 90.514286 76.8 27.2 27.314286 23.657143 64.914286 7.657143 114.4z m488.228571 62.857143c-17.485714 164.342857-231.314286 103.2-231.314286 103.2l11.657143-46.971428 49.485714 10.628571c91.428571 5.714286 82.628571-74.171429 82.628572-74.171428V410.285714c0.685714-88.342857-82.971429-97.6-233.371429-43.771428l34.971429 9.485714c-2.857143 10.285714-14.285714 26.514286-28.8 44.114286h201.142857v40.685714h-113.257143v50.857143h112.8v40.8h-112.8V637.714286c17.028571-5.485714 32.685714-13.142857 46.285714-23.428572l-9.942857-37.142857 53.142857-16.457143 44.342858 108.457143-65.485715 27.314286-11.657143-43.2c-29.257143 22.285714-90.057143 54.857143-196.342857 51.885714-113.371429 2.971429-84.228571-128-84.228571-128l2.857143-1.485714H466.285714c-0.571429 16.8-7.542857 44.228571 1.942857 59.2 7.771429 12.342857 27.657143 14.4 40.342858 14.971428 1.485714 0.114286 2.971429 0.114286 4.457142 0.114286v-97.485714h-115.428571v-40.8h115.428571v-50.857143H483.428571c-25.942857 27.542857-49.714286 50.4-49.714285 50.4l-34.971429-30.514286c24.8-26.171429 49.485714-67.542857 64.914286-95.085714-12.457143 5.028571-25.142857 10.514286-38.4 16.228571-12.8 16.342857-27.657143 33.142857-44.228572 49.714286 0.571429 0.914286-57.142857-32.457143-57.142857-32.457143 59.657143-50.742857 93.028571-159.885714 93.028572-159.885714l82.857143 23.314286s-6.742857 16-21.028572 40.685714c331.771429-94.057143 351.314286 57.714286 351.314286 57.714286s21.828571 104.914286 4.342857 269.371428z" p-id="30434" fill="#dc5126"></path></svg>