<svg t="1581143698320" class="icon" viewBox="0 0 1024 1024" version="1.1" xmlns="http://www.w3.org/2000/svg" p-id="2837" width="200" height="200"><path d="M495.957333 308.138667c-37.376 0-95.232-42.496-156.16-40.96-80.384 1.024-154.112 46.592-195.584 118.784-83.456 144.896-21.504 358.912 59.904 476.672 39.936 57.344 87.04 121.856 149.504 119.808 59.904-2.56 82.432-38.912 155.136-38.912 72.192 0 92.672 38.912 156.16 37.376 64.512-1.024 105.472-58.368 144.896-116.224 45.568-66.56 64.512-131.072 65.536-134.656-1.536-0.512-125.44-48.128-126.976-191.488-1.024-119.808 97.792-177.152 102.4-179.712-56.32-82.432-142.848-91.648-173.056-93.696-78.848-6.144-144.896 43.008-181.76 43.008z m133.12-120.832c33.28-39.936 55.296-95.744 49.152-151.04-47.616 2.048-104.96 31.744-139.264 71.68-30.72 35.328-57.344 92.16-50.176 146.432 52.736 4.096 107.008-27.136 140.288-67.072z" p-id="2838" fill="#888888"></path></svg>